#!OML:ASF E:\acrobat2\Project_11_07_03\Capture day 1\Session 1\Acrobat.ASF
:FULLY-SPECIFIED
:DEGREES
223
root 10.7321 18.0677 -38.3934 6.28914 -3.20251 -0.870445
lowerback -7.50026 0.0658738 -0.547694
upperback -1.28158 0.152356 -0.690347
thorax 2.88095 0.0727374 -0.389323
lowerneck 0.626533 -5.53722 -3.36932
upperneck 0.598691 -7.48771 8.79019
head 0.584468 -3.74518 3.35836
rclavicle 5.6312e-015 7.15625e-015
rhumerus -38.8387 2.2598 -87.2511
rradius 28.1894
rwrist 4.24274
rhand 1.6176 -48.0382
rfingers 7.12502
rthumb 27.1388 -76.107
lclavicle 5.6312e-015 7.15625e-015
lhumerus -31.3985 -16.7945 93.1518
lradius 20.9823
lwrist 10.2535
lhand -11.2779 -9.33884
lfingers 7.12502
lthumb 14.7527 20.1161
rfemur 2.26853 7.87463 20.6885
rtibia 1.48777
rfoot -20.9241 -19.689
rtoes 8.66724
lfemur -1.29837 -0.0354233 -17.1846
ltibia 4.46498
lfoot -6.93228 -5.68217
ltoes 31.0345
224
root 10.7367 18.0681 -38.393 6.29492 -3.17111 -0.792802
lowerback -7.46325 0.0388252 -0.619945
upperback -1.31227 0.121616 -0.696899
thorax 2.8284 0.0568834 -0.358506
lowerneck 0.672619 -5.52776 -3.38912
upperneck 0.586471 -7.47404 8.7399
head 0.570133 -3.73972 3.34683
rclavicle -2.05928e-015 4.77083e-015
rhumerus -38.8717 2.32301 -87.244
rradius 28.1485
rwrist 4.22539
rhand 1.61674 -47.993
rfingers 7.12502
rthumb 27.138 -76.062
lclavicle -2.05928e-015 4.77083e-015
lhumerus -31.4847 -16.7284 93.1829
lradius 21.0389
lwrist 10.2918
lhand -11.33 -9.39951
lfingers 7.12502
lthumb 14.7026 20.0591
rfemur 2.27787 7.75662 20.5444
rtibia 1.4011
rfoot -20.8075 -19.6271
rtoes 8.45234
lfemur -1.42155 0.0431291 -17.2854
ltibia 4.65849
lfoot -6.94396 -5.87854
ltoes 31.24
225
root 10.7416 18.0683 -38.3923 6.29655 -3.12545 -0.721426
lowerback -7.42969 0.0213388 -0.667812
upperback -1.33168 0.10224 -0.719085
thorax 2.78958 0.0469656 -0.356372
lowerneck 0.724623 -5.53197 -3.37883
upperneck 0.545589 -7.47674 8.69089
head 0.545523 -3.743 3.33054
rclavicle -3.60297e-016 2.38542e-015
rhumerus -38.8956 2.34055 -87.244
rradius 28.1178
rwrist 4.2172
rhand 1.62904 -47.9407
rfingers 7.12502
rthumb 27.1498 -76.0078
lclavicle -3.60297e-016 2.38542e-015
lhumerus -31.5676 -16.7453 93.218
lradius 21.1124
lwrist 10.3756
lhand -11.4097 -9.4974
lfingers 7.12502
lthumb 14.6258 19.9668
rfemur 2.29872 7.64354 20.4116
rtibia 1.31985
rfoot -20.7006 -19.5973
rtoes 8.15968
lfemur -1.58213 0.115228 -17.3784
ltibia 4.92835
lfoot -6.97713 -6.11014
ltoes 31.3855
226
root 10.747 18.0685 -38.3915 6.28909 -3.06736 -0.667778
lowerback -7.40093 0.0136884 -0.678009
upperback -1.33004 0.0936674 -0.755259
thorax 2.77528 0.0427577 -0.388774
lowerneck 0.762991 -5.54511 -3.33442
upperneck 0.472272 -7.48892 8.64453
head 0.512293 -3.75119 3.30879
rclavicle 4.56428e-015 -9.14409e-015
rhumerus -38.8877 2.30707 -87.2515
rradius 28.0842
rwrist 4.23081
rhand 1.6573 -47.8963
rfingers 7.12502
rthumb 27.1768 -75.9592
lclavicle 4.56428e-015 -9.14409e-015
lhumerus -31.6258 -16.8139 93.2375
lradius 21.1932
lwrist 10.4711
lhand -11.5075 -9.64317
lfingers 7.12502
lthumb 14.5315 19.8279
rfemur 2.33724 7.54592 20.307
rtibia 1.24794
rfoot -20.6192 -19.5985
rtoes 7.8189
lfemur -1.7662 0.177939 -17.45
ltibia 5.26276
lfoot -7.03244 -6.35356
ltoes 31.4122
227
root 10.7526 18.0686 -38.3909 6.27812 -2.9912 -0.640358
lowerback -7.37773 0.00532689 -0.651342
upperback -1.30347 0.0816543 -0.792911
thorax 2.78986 0.0371142 -0.443758
lowerneck 0.74834 -5.55437 -3.27214
upperneck 0.389814 -7.49457 8.59657
head 0.484176 -3.75507 3.28171
rclavicle -4.0316e-015 -1.78906e-014
rhumerus -38.8306 2.25387 -87.2646
rradius 28.0431
rwrist 4.2651
rhand 1.70131 -47.8583
rfingers 7.12502
rthumb 27.2189 -75.9145
lclavicle -4.0316e-015 -1.78906e-014
lhumerus -31.634 -16.8753 93.2258
lradius 21.2646
lwrist 10.5441
lhand -11.6039 -9.82406
lfingers 7.12502
lthumb 14.4387 19.6537
rfemur 2.38531 7.48009 20.2454
rtibia 1.18787
rfoot -20.5748 -19.6413
rtoes 7.48689
lfemur -1.97672 0.228177 -17.4892
ltibia 5.65224
lfoot -7.10051 -6.59315
ltoes 31.3375
228
root 10.7587 18.0686 -38.3898 6.25551 -2.91201 -0.644222
lowerback -7.34215 -0.00193944 -0.591336
upperback -1.27277 0.0681494 -0.822118
thorax 2.80178 0.0310208 -0.508902
lowerneck 0.724979 -5.55367 -3.2078
upperneck 0.310243 -7.48692 8.54396
head 0.457365 -3.75206 3.25261
rclavicle 7.31465e-015 -2.18663e-014
rhumerus -38.7836 2.20982 -87.2784
rradius 28.0125
rwrist 4.30141
rhand 1.75176 -47.8151
rfingers 7.12502
rthumb 27.2672 -75.8638
lclavicle 7.31465e-015 -2.18663e-014
lhumerus -31.6282 -16.8907 93.1944
lradius 21.318
lwrist 10.5716
lhand -11.6554 -10.0139
lfingers 7.12502
lthumb 14.3891 19.4674
rfemur 2.45051 7.44077 20.2299
rtibia 1.13638
rfoot -20.5616 -19.6996
rtoes 7.21573
lfemur -2.18289 0.259024 -17.4959
ltibia 6.06462
lfoot -7.19118 -6.80477
ltoes 31.1651
229
root 10.7659 18.0685 -38.3872 6.21874 -2.84771 -0.673966
lowerback -7.30913 -0.00868979 -0.505345
upperback -1.23798 0.0528964 -0.834841
thorax 2.81932 0.0242616 -0.571816
lowerneck 0.703316 -5.53717 -3.16889
upperneck 0.246096 -7.45936 8.491
head 0.434968 -3.73891 3.22823
rclavicle -5.6343e-015 2.26615e-014
rhumerus -38.7621 2.21653 -87.2892
rradius 28.0006
rwrist 4.31913
rhand 1.7947 -47.7584
rfingers 7.12502
rthumb 27.3082 -75.8007
lclavicle -5.6343e-015 2.26615e-014
lhumerus -31.6123 -16.8314 93.1515
lradius 21.3495
lwrist 10.5441
lhand -11.629 -10.1852
lfingers 7.12502
lthumb 14.4145 19.2942
rfemur 2.53451 7.40383 20.2427
rtibia 1.08995
rfoot -20.5646 -19.7378
rtoes 6.96927
lfemur -2.35892 0.24617 -17.4877
ltibia 6.46715
lfoot -7.33175 -6.95861
ltoes 30.8889
230
root 10.7741 18.068 -38.3842 6.1828 -2.77379 -0.716793
lowerback -7.26483 -0.0219146 -0.406168
upperback -1.22265 0.0274243 -0.837729
thorax 2.81032 0.0125316 -0.632922
lowerneck 0.709255 -5.51016 -3.1557
upperneck 0.209335 -7.42007 8.44104
head 0.416966 -3.72003 3.21028
rclavicle -8.27752e-015 1.15295e-014
rhumerus -38.7949 2.26164 -87.3003
rradius 28.0086
rwrist 4.32111
rhand 1.81798 -47.6912
rfingers 7.12502
rthumb 27.3305 -75.7299
lclavicle -8.27752e-015 1.15295e-014
lhumerus -31.6278 -16.7388 93.113
lradius 21.3728
lwrist 10.4919
lhand -11.5252 -10.3004
lfingers 7.12502
lthumb 14.5145 19.1719
rfemur 2.61941 7.36442 20.2698
rtibia 1.04917
rfoot -20.5923 -19.7754
rtoes 6.72181
lfemur -2.54239 0.188133 -17.4783
ltibia 6.88448
lfoot -7.5211 -7.0828
ltoes 30.4663
231
root 10.7835 18.0674 -38.3809 6.14244 -2.67388 -0.754597
lowerback -7.19161 -0.04415 -0.307305
upperback -1.22856 -0.0104063 -0.839555
thorax 2.76307 -0.00539669 -0.6938
lowerneck 0.738348 -5.48167 -3.16538
upperneck 0.19247 -7.38067 8.40199
head 0.402708 -3.70127 3.20069
rclavicle 1.96921e-014 -1.35174e-014
rhumerus -38.876 2.32364 -87.3084
rradius 28.0256
rwrist 4.31451
rhand 1.81098 -47.6305
rfingers 7.12502
rthumb 27.3238 -75.6703
lclavicle 1.96921e-014 -1.35174e-014
lhumerus -31.683 -16.6646 93.0942
lradius 21.3961
lwrist 10.4517
lhand -11.3869 -10.3457
lfingers 7.12502
lthumb 14.6478 19.1169
rfemur 2.71077 7.3083 20.2886
rtibia 1.01162
rfoot -20.6396 -19.8152
rtoes 6.47769
lfemur -2.73756 0.0743775 -17.4918
ltibia 7.32764
lfoot -7.76946 -7.1929
ltoes 29.8106
232
root 10.7937 18.0669 -38.3783 6.09475 -2.52313 -0.773502
lowerback -7.06992 -0.0844996 -0.224758
upperback -1.25037 -0.0713472 -0.844281
thorax 2.67198 -0.0350818 -0.750379
lowerneck 0.755878 -5.45483 -3.19802
upperneck 0.195277 -7.34505 8.37923
head 0.398615 -3.68382 3.20006
rclavicle -6.79595e-015 1.59028e-014
rhumerus -38.9763 2.39098 -87.3101
rradius 28.0363
rwrist 4.30401
rhand 1.77373 -47.5794
rfingers 7.12502
rthumb 27.2882 -75.6248
lclavicle -6.79595e-015 1.59028e-014
lhumerus -31.7585 -16.6323 93.099
lradius 21.4155
lwrist 10.4422
lhand -11.2752 -10.3331
lfingers 7.12502
lthumb 14.7554 19.1217
rfemur 2.81021 7.22548 20.2867
rtibia 0.975082
rfoot -20.7005 -19.8735
rtoes 6.25749
lfemur -2.9549 -0.0934327 -17.5408
ltibia 7.81191
lfoot -8.05972 -7.32078
ltoes 28.9369
233
root 10.8038 18.0664 -38.3772 6.04048 -2.31653 -0.784518
lowerback -6.89238 -0.140632 -0.152581
upperback -1.27727 -0.152572 -0.853325
thorax 2.5441 -0.0751016 -0.806919
lowerneck 0.723888 -5.43472 -3.23855
upperneck 0.215439 -7.31929 8.3748
head 0.410399 -3.66994 3.20499
rclavicle 1.48498e-014 1.19271e-015
rhumerus -39.0625 2.4353 -87.3033
rradius 28.0351
rwrist 4.29743
rhand 1.72312 -47.5441
rfingers 7.12502
rthumb 27.2398 -75.5971
lclavicle 1.48498e-014 1.19271e-015
lhumerus -31.8261 -16.6594 93.1178
lradius 21.4309
lwrist 10.4705
lhand -11.211 -10.2879
lfingers 7.12502
lthumb 14.8173 19.1623
rfemur 2.91006 7.1321 20.2859
rtibia 0.950463
rfoot -20.7801 -19.9644
rtoes 6.10631
lfemur -3.20183 -0.285902 -17.6006
ltibia 8.34647
lfoot -8.3633 -7.49923
ltoes 27.9398
234
root 10.8141 18.0657 -38.3754 5.97715 -2.11227 -0.80695
lowerback -6.70112 -0.185938 -0.06046
upperback -1.29082 -0.220205 -0.872377
thorax 2.42219 -0.108285 -0.883307
lowerneck 0.640959 -5.42535 -3.26157
upperneck 0.233965 -7.30728 8.38562
head 0.431364 -3.66184 3.21001
rclavicle -4.38879e-015 2.38542e-015
rhumerus -39.115 2.43644 -87.2927
rradius 28.0235
rwrist 4.29673
rhand 1.67928 -47.5418
rfingers 7.12502
rthumb 27.1978 -75.6014
lclavicle -4.38879e-015 2.38542e-015
lhumerus -31.8638 -16.7452 93.1331
lradius 21.4426
lwrist 10.526
lhand -11.1945 -10.2387
lfingers 7.12502
lthumb 14.8332 19.2103
rfemur 3.00481 7.03686 20.298
rtibia 0.95708
rfoot -20.8662 -20.0363
rtoes 6.05019
lfemur -3.4311 -0.485715 -17.6503
ltibia 8.87632
lfoot -8.6878 -7.68881
ltoes 26.9426
